{"glyphs":{"0":{"ha":648,"x_min":64,"x_max":585,"o":"m 585 97 q 489 0 585 0 l 158 0 q 64 97 64 0 l 64 964 q 160 1061 64 1061 l 489 1061 q 585 964 585 1061 l 585 97 m 429 136 l 429 925 l 220 925 l 220 136 l 429 136 z "},"1":{"ha":326,"x_min":39,"x_max":256,"o":"m 256 0 l 100 0 l 100 749 l 39 749 l 39 770 l 121 1061 l 256 1061 l 256 0 z "},"2":{"ha":612,"x_min":46,"x_max":562,"o":"m 562 760 q 528 648 562 709 l 236 139 l 561 139 l 561 0 l 46 0 l 46 98 l 406 730 l 406 926 l 212 926 l 212 729 l 57 729 l 57 965 q 154 1061 57 1061 l 465 1061 q 562 965 562 1061 l 562 760 z "},"3":{"ha":639,"x_min":64,"x_max":579,"o":"m 579 97 q 484 0 579 0 l 158 0 q 64 97 64 0 l 64 342 l 220 342 l 220 136 l 424 136 l 424 403 l 229 536 l 229 570 l 424 701 l 424 925 l 220 925 l 220 732 l 64 732 l 64 964 q 160 1061 64 1061 l 484 1061 q 579 964 579 1061 l 579 714 q 526 616 579 651 l 428 553 l 528 490 q 579 395 579 458 l 579 97 z "},"4":{"ha":632,"x_min":24,"x_max":604,"o":"m 604 200 l 524 200 l 524 0 l 372 0 l 372 200 l 24 200 l 24 294 l 288 1061 l 449 1061 q 449 1055 449 1057 l 201 335 l 372 335 l 372 654 l 524 654 l 524 335 l 604 335 l 604 200 z "},"5":{"ha":631,"x_min":62,"x_max":571,"o":"m 571 97 q 475 0 571 0 l 157 0 q 62 97 62 0 l 62 342 l 218 342 l 218 136 l 415 136 l 415 545 l 62 545 l 79 1061 l 564 1061 l 564 922 l 227 922 l 216 681 l 475 681 q 571 585 571 681 l 571 97 z "},"6":{"ha":640,"x_min":64,"x_max":578,"o":"m 578 97 q 482 0 578 0 l 160 0 q 64 97 64 0 l 64 964 q 158 1061 64 1061 l 479 1061 q 575 964 575 1061 l 575 739 l 419 739 l 419 925 l 220 925 l 220 606 l 482 606 q 578 510 578 606 l 578 97 m 422 136 l 422 471 l 220 471 l 220 136 l 422 136 z "},"7":{"ha":599,"x_min":40,"x_max":566,"o":"m 566 960 l 321 0 l 158 0 l 396 925 l 193 925 l 193 770 l 40 770 l 40 1061 l 566 1061 l 566 960 z "},"8":{"ha":652,"x_min":62,"x_max":587,"o":"m 587 97 q 492 0 587 0 l 157 0 q 62 97 62 0 l 62 406 q 102 496 62 465 q 196 550 149 523 q 105 603 151 576 q 64 690 64 635 l 64 964 q 160 1061 64 1061 l 490 1061 q 585 964 585 1061 l 585 690 q 544 603 585 635 q 453 550 498 576 q 547 496 500 523 q 587 406 587 465 l 587 97 m 428 673 l 428 928 l 222 928 l 222 673 l 325 612 l 428 673 m 429 134 l 429 428 l 325 488 l 220 428 l 220 134 l 429 134 z "},"9":{"ha":640,"x_min":61,"x_max":576,"o":"m 576 97 q 481 0 576 0 l 161 0 q 65 97 65 0 l 65 322 l 221 322 l 221 136 l 419 136 l 419 456 l 155 456 q 61 551 61 456 l 61 964 q 155 1061 61 1061 l 479 1061 q 576 964 576 1061 l 576 97 m 419 590 l 419 925 l 216 925 l 216 590 l 419 590 z "}," ":{"ha":286,"x_min":0,"x_max":0,"o":""},"!":{"ha":297,"x_min":64,"x_max":233,"o":"m 233 1061 l 211 248 l 86 248 l 64 1061 l 233 1061 m 227 0 l 69 0 l 69 163 l 227 163 l 227 0 z "},"\"":{"ha":479,"x_min":50,"x_max":428,"o":"m 428 1061 l 399 729 l 302 729 l 273 1061 l 428 1061 m 205 1061 l 175 729 l 81 729 l 50 1061 l 205 1061 z "},"#":{"ha":753,"x_min":32,"x_max":722,"o":"m 722 664 l 595 664 l 551 395 l 673 395 l 673 265 l 530 265 l 488 0 l 347 0 l 390 265 l 278 265 l 236 0 l 94 0 l 138 265 l 32 265 l 32 395 l 158 395 l 201 664 l 81 664 l 81 793 l 222 793 l 265 1061 l 406 1061 l 363 793 l 475 793 l 518 1061 l 660 1061 l 615 793 l 722 793 l 722 664 m 454 664 l 342 664 l 298 395 l 411 395 l 454 664 z "},"$":{"ha":635,"x_min":61,"x_max":570,"o":"m 570 107 q 533 25 570 47 q 449 9 507 9 q 419 9 439 9 q 389 9 399 9 l 389 -85 l 240 -85 l 240 9 q 210 9 230 9 q 180 9 190 9 q 96 25 123 9 q 61 107 61 47 l 61 350 l 220 350 l 220 138 l 411 138 l 411 345 l 96 643 q 61 729 61 676 l 61 954 q 96 1036 61 1014 q 180 1053 123 1053 q 210 1052 190 1053 q 240 1051 230 1051 l 240 1146 l 389 1146 l 389 1051 q 419 1052 399 1051 q 450 1053 440 1053 q 534 1036 507 1053 q 570 956 570 1015 l 570 726 l 411 726 l 411 921 l 220 921 l 220 734 l 533 439 q 570 353 570 405 l 570 107 z "},"%":{"ha":911,"x_min":29,"x_max":878,"o":"m 785 1042 l 215 0 l 123 0 l 123 19 l 694 1061 l 785 1061 l 785 1042 m 878 82 q 795 0 878 0 l 612 0 q 530 82 530 0 l 530 458 q 612 540 530 540 l 795 540 q 878 458 878 540 l 878 82 m 764 99 l 764 441 l 643 441 l 643 99 l 764 99 m 376 604 q 294 522 376 522 l 111 522 q 29 604 29 522 l 29 979 q 111 1061 29 1061 l 294 1061 q 376 979 376 1061 l 376 604 m 262 621 l 262 962 l 142 962 l 142 621 l 262 621 z "},"&":{"ha":677,"x_min":61,"x_max":647,"o":"m 647 485 l 572 485 l 572 0 l 157 0 q 61 96 61 0 l 61 419 q 95 500 61 471 q 175 554 135 528 q 98 606 136 580 q 64 685 64 635 l 64 965 q 160 1061 64 1061 l 482 1061 q 578 965 578 1061 l 578 745 l 422 745 l 422 928 l 221 928 l 221 671 l 293 621 l 647 621 l 647 485 m 418 134 l 418 485 l 289 485 l 216 433 l 216 134 l 418 134 z "},"'":{"ha":256,"x_min":50,"x_max":205,"o":"m 205 1061 l 175 729 l 81 729 l 50 1061 l 205 1061 z "},"(":{"ha":422,"x_min":57,"x_max":387,"o":"m 387 -136 l 231 -136 q 57 463 57 139 q 231 1061 57 786 l 387 1061 l 387 1054 q 227 463 227 774 q 387 -129 227 151 l 387 -136 z "},")":{"ha":422,"x_min":36,"x_max":367,"o":"m 367 463 q 193 -136 367 139 l 36 -136 l 36 -129 q 197 463 197 151 q 36 1054 197 774 l 36 1061 l 193 1061 q 367 463 367 786 z "},"*":{"ha":636,"x_min":53,"x_max":585,"o":"m 585 736 l 511 618 l 374 720 l 386 543 l 249 543 l 264 720 l 125 618 l 53 736 l 216 807 l 53 879 l 125 997 l 264 897 l 249 1072 l 386 1072 l 374 897 l 511 997 l 585 879 l 421 807 l 585 736 z "},"+":{"ha":659,"x_min":50,"x_max":608,"o":"m 608 399 l 401 399 l 401 196 l 257 196 l 257 399 l 50 399 l 50 530 l 257 530 l 257 733 l 401 733 l 401 530 l 608 530 l 608 399 z "},",":{"ha":256,"x_min":37,"x_max":220,"o":"m 220 163 l 140 -110 l 37 -110 l 57 163 l 220 163 z "},"-":{"ha":428,"x_min":52,"x_max":375,"o":"m 375 338 l 52 338 l 52 479 l 375 479 l 375 338 z "},"‐":{"ha":428,"x_min":52,"x_max":375,"o":"m 375 338 l 52 338 l 52 479 l 375 479 l 375 338 z "},".":{"ha":256,"x_min":52,"x_max":204,"o":"m 204 0 l 52 0 l 52 164 l 204 164 l 204 0 z "},"/":{"ha":616,"x_min":26,"x_max":590,"o":"m 590 1051 l 171 0 l 26 0 l 26 9 l 446 1061 l 590 1061 l 590 1051 z "},":":{"ha":256,"x_min":52,"x_max":204,"o":"m 204 431 l 52 431 l 52 596 l 204 596 l 204 431 m 204 0 l 52 0 l 52 164 l 204 164 l 204 0 z "},";":{"ha":256,"x_min":32,"x_max":214,"o":"m 204 431 l 52 431 l 52 596 l 204 596 l 204 431 m 214 163 l 135 -110 l 32 -110 l 52 163 l 214 163 z "},"<":{"ha":505,"x_min":45,"x_max":447,"o":"m 447 138 l 439 138 l 45 418 l 45 498 l 447 779 l 447 615 l 214 458 l 447 301 l 447 138 z "},"=":{"ha":648,"x_min":54,"x_max":595,"o":"m 595 521 l 54 521 l 54 652 l 595 652 l 595 521 m 595 253 l 54 253 l 54 382 l 595 382 l 595 253 z "},">":{"ha":505,"x_min":58,"x_max":463,"o":"m 463 418 l 68 138 l 58 138 l 58 301 l 293 458 l 58 615 l 58 779 l 68 779 l 463 498 l 463 418 z "},"?":{"ha":589,"x_min":50,"x_max":541,"o":"m 541 745 q 513 656 541 693 l 358 447 l 358 248 l 204 248 l 204 428 q 232 519 204 481 l 385 726 l 385 929 l 205 929 l 205 736 l 50 736 l 50 964 q 147 1061 50 1061 l 443 1061 q 541 964 541 1061 l 541 745 m 361 0 l 201 0 l 201 163 l 361 163 l 361 0 z "},"@":{"ha":810,"x_min":62,"x_max":747,"o":"m 747 0 l 123 0 q 62 61 62 0 l 62 1000 q 123 1061 62 1061 l 686 1061 q 747 1000 747 1061 l 747 293 q 686 232 747 232 l 309 232 q 248 292 248 232 l 248 529 q 309 590 248 590 l 447 590 l 447 742 l 359 742 l 359 647 l 254 647 l 254 774 q 314 835 254 835 l 496 835 q 557 774 557 835 l 557 304 l 675 304 l 675 991 l 135 991 l 135 69 l 747 69 l 747 0 m 447 321 l 447 503 l 357 503 l 357 321 l 447 321 z "},"A":{"ha":627,"x_min":25,"x_max":602,"o":"m 602 0 l 444 0 l 412 201 l 214 201 l 182 0 l 25 0 l 25 3 l 231 1063 l 397 1063 l 602 0 m 390 338 l 313 817 l 235 338 l 390 338 z "},"B":{"ha":646,"x_min":64,"x_max":585,"o":"m 585 97 q 488 0 585 0 l 64 0 l 64 1061 l 485 1061 q 579 964 579 1061 l 579 690 q 545 606 579 636 q 463 554 541 602 q 548 500 543 505 q 585 412 585 468 l 585 97 m 421 671 l 421 928 l 222 928 l 222 616 l 345 616 l 421 671 m 425 134 l 425 436 l 347 488 l 222 488 l 222 134 l 425 134 z "},"C":{"ha":647,"x_min":64,"x_max":586,"o":"m 586 97 q 489 0 586 0 l 158 0 q 64 97 64 0 l 64 964 q 158 1061 64 1061 l 489 1061 q 586 964 586 1061 l 586 715 l 428 715 l 428 925 l 222 925 l 222 136 l 428 136 l 428 359 l 586 359 l 586 97 z "},"D":{"ha":652,"x_min":64,"x_max":593,"o":"m 593 200 q 537 53 593 106 q 387 0 481 0 l 64 0 l 64 1061 l 387 1061 q 537 1007 481 1061 q 593 860 593 954 l 593 200 m 433 227 l 433 836 q 340 925 433 925 l 222 925 l 222 136 l 336 136 q 433 227 433 136 z "},"E":{"ha":549,"x_min":64,"x_max":504,"o":"m 504 0 l 64 0 l 64 1061 l 500 1061 l 500 921 l 222 921 l 222 611 l 461 611 l 461 473 l 222 473 l 222 140 l 504 140 l 504 0 z "},"F":{"ha":524,"x_min":64,"x_max":497,"o":"m 497 921 l 222 921 l 222 607 l 457 607 l 457 469 l 222 469 l 222 0 l 64 0 l 64 1061 l 497 1061 l 497 921 z "},"G":{"ha":652,"x_min":64,"x_max":589,"o":"m 589 97 q 492 0 589 0 l 158 0 q 64 97 64 0 l 64 964 q 160 1061 64 1061 l 492 1061 q 589 964 589 1061 l 589 737 l 429 737 l 429 925 l 222 925 l 222 136 l 429 136 l 429 433 l 311 433 l 311 568 l 589 568 l 589 97 z "},"H":{"ha":660,"x_min":64,"x_max":597,"o":"m 597 0 l 437 0 l 437 476 l 222 476 l 222 0 l 64 0 l 64 1061 l 222 1061 l 222 624 l 437 624 l 437 1061 l 597 1061 l 597 0 z "},"I":{"ha":292,"x_min":66,"x_max":225,"o":"m 225 0 l 66 0 l 66 1061 l 225 1061 l 225 0 z "},"J":{"ha":603,"x_min":46,"x_max":541,"o":"m 541 97 q 443 0 541 0 l 142 0 q 46 97 46 0 l 46 358 l 204 358 l 204 136 l 382 136 l 382 1061 l 541 1061 l 541 97 z "},"K":{"ha":599,"x_min":64,"x_max":599,"o":"m 599 0 l 424 0 l 222 473 l 222 0 l 64 0 l 64 1061 l 222 1061 l 222 612 l 399 1061 l 572 1061 l 572 1054 l 357 550 l 599 0 z "},"L":{"ha":511,"x_min":64,"x_max":481,"o":"m 481 0 l 64 0 l 64 1061 l 222 1061 l 222 142 l 481 142 l 481 0 z "},"M":{"ha":768,"x_min":64,"x_max":705,"o":"m 705 0 l 553 0 l 553 524 q 562 639 553 565 l 425 97 l 345 97 l 207 639 q 216 524 216 564 l 216 0 l 64 0 l 64 1061 l 214 1061 l 380 475 q 385 427 383 465 q 389 475 385 444 l 555 1061 l 705 1061 l 705 0 z "},"N":{"ha":665,"x_min":64,"x_max":602,"o":"m 602 0 l 463 0 l 208 668 q 218 591 218 619 l 218 0 l 64 0 l 64 1061 l 203 1061 l 457 407 q 447 484 447 456 l 447 1061 l 602 1061 l 602 0 z "},"O":{"ha":663,"x_min":64,"x_max":599,"o":"m 599 97 q 503 0 599 0 l 158 0 q 64 97 64 0 l 64 964 q 158 1061 64 1061 l 503 1061 q 599 964 599 1061 l 599 97 m 440 136 l 440 925 l 222 925 l 222 136 l 440 136 z "},"P":{"ha":625,"x_min":64,"x_max":576,"o":"m 576 484 q 479 385 576 385 l 222 385 l 222 0 l 64 0 l 64 1061 l 479 1061 q 576 964 576 1061 l 576 484 m 416 521 l 416 925 l 222 925 l 222 521 l 416 521 z "},"Q":{"ha":684,"x_min":64,"x_max":671,"o":"m 671 -1 l 660 -1 l 589 53 q 503 0 570 0 l 158 0 q 64 97 64 0 l 64 964 q 160 1061 64 1061 l 503 1061 q 599 964 599 1061 l 599 196 l 671 144 l 671 -1 m 440 136 l 440 174 l 347 244 l 347 389 l 357 389 l 440 326 l 440 925 l 222 925 l 222 136 l 440 136 z "},"R":{"ha":640,"x_min":64,"x_max":607,"o":"m 607 0 l 441 0 l 267 493 q 267 589 267 493 l 422 589 l 422 925 l 222 925 l 222 0 l 64 0 l 64 1061 l 485 1061 q 581 964 581 1061 l 581 578 q 535 491 581 511 q 432 481 511 481 l 607 0 z "},"S":{"ha":635,"x_min":61,"x_max":572,"o":"m 572 97 q 476 0 572 0 l 157 0 q 61 97 61 0 l 61 350 l 220 350 l 220 134 l 414 134 l 414 342 l 96 643 q 61 728 61 676 l 61 964 q 157 1061 61 1061 l 476 1061 q 572 965 572 1061 l 572 728 l 414 728 l 414 928 l 220 928 l 220 736 l 538 436 q 572 350 572 404 l 572 97 z "},"T":{"ha":542,"x_min":17,"x_max":525,"o":"m 525 921 l 350 921 l 350 0 l 192 0 l 192 921 l 17 921 l 17 1061 l 525 1061 l 525 921 z "},"U":{"ha":659,"x_min":64,"x_max":595,"o":"m 595 97 q 497 0 595 0 l 160 0 q 64 97 64 0 l 64 1061 l 222 1061 l 222 136 l 436 136 l 436 1061 l 595 1061 l 595 97 z "},"V":{"ha":618,"x_min":28,"x_max":592,"o":"m 592 1061 l 389 -1 l 231 -1 l 28 1061 l 187 1061 l 306 334 q 310 243 307 302 q 314 334 309 274 l 433 1061 l 592 1061 z "},"W":{"ha":872,"x_min":25,"x_max":847,"o":"m 847 1061 l 692 -1 l 536 -1 l 441 600 q 436 697 440 633 q 431 600 436 665 l 336 -1 l 180 -1 l 25 1061 l 186 1061 l 268 432 q 273 335 270 399 q 279 432 274 368 l 371 1061 l 501 1061 l 593 432 q 599 335 595 399 q 604 432 600 368 l 686 1061 l 847 1061 z "},"X":{"ha":611,"x_min":18,"x_max":593,"o":"m 593 0 l 421 0 l 304 374 l 187 0 l 18 0 l 18 5 l 216 543 q 31 1061 30 1059 l 200 1061 l 306 715 l 412 1061 l 581 1061 l 581 1055 l 395 547 l 593 0 z "},"Y":{"ha":615,"x_min":18,"x_max":597,"o":"m 597 1055 l 457 612 q 387 390 431 546 l 387 0 l 228 0 l 228 390 q 197 502 217 443 q 158 612 161 603 l 18 1055 q 18 1061 18 1056 l 182 1061 l 309 600 l 435 1061 l 597 1061 q 597 1055 597 1057 z "},"Z":{"ha":542,"x_min":26,"x_max":514,"o":"m 514 0 l 26 0 l 26 85 l 323 918 l 50 918 l 50 1061 l 513 1061 l 513 970 l 216 143 l 514 143 l 514 0 z "},"[":{"ha":408,"x_min":64,"x_max":359,"o":"m 359 -168 l 157 -168 q 64 -75 64 -168 l 64 970 q 157 1061 64 1061 l 359 1061 l 359 920 l 220 920 l 220 -26 l 359 -26 l 359 -168 z "},"\\":{"ha":616,"x_min":26,"x_max":590,"o":"m 590 0 l 446 0 l 26 1061 l 171 1061 l 590 0 z "},"]":{"ha":408,"x_min":49,"x_max":346,"o":"m 346 -75 q 253 -168 346 -168 l 49 -168 l 49 -26 l 191 -26 l 191 920 l 49 920 l 49 1061 l 253 1061 q 346 970 346 1061 l 346 -75 z "},"^":{"ha":579,"x_min":53,"x_max":526,"o":"m 526 686 l 401 686 l 289 897 l 176 686 l 53 686 l 53 694 l 222 1061 l 359 1061 l 526 686 z "},"_":{"ha":549,"x_min":0,"x_max":550,"o":"m 550 -278 l 0 -278 l 0 -160 l 550 -160 l 550 -278 z "},"`":{"ha":567,"x_min":157,"x_max":468,"o":"m 468 730 l 354 730 l 157 909 l 157 916 l 350 916 l 468 736 l 468 730 z "},"a":{"ha":553,"x_min":53,"x_max":497,"o":"m 497 0 l 349 0 l 349 24 q 243 7 296 16 q 138 -3 174 -3 q 53 81 53 -3 l 53 328 q 140 412 53 412 l 350 412 l 350 570 l 201 570 l 201 472 l 61 472 l 61 600 q 149 685 61 685 l 411 685 q 497 600 497 685 l 497 0 m 350 123 l 350 307 l 201 307 l 201 118 l 350 123 z "},"b":{"ha":568,"x_min":56,"x_max":513,"o":"m 513 138 q 474 37 513 73 q 371 0 435 0 l 56 0 l 56 1061 l 211 1061 l 211 660 q 319 677 265 668 q 428 688 388 688 q 513 604 513 688 l 513 138 m 357 180 l 357 555 l 211 553 l 211 129 l 307 129 q 357 180 357 129 z "},"c":{"ha":554,"x_min":56,"x_max":498,"o":"m 498 85 q 412 0 498 0 l 143 0 q 56 85 56 0 l 56 600 q 143 685 56 685 l 412 685 q 498 600 498 685 l 498 437 l 347 437 l 347 555 l 208 555 l 208 129 l 347 129 l 347 260 l 498 260 l 498 85 z "},"d":{"ha":567,"x_min":54,"x_max":510,"o":"m 510 0 l 355 0 l 355 24 q 179 -4 198 -4 q 87 30 121 -4 q 54 123 54 64 l 54 547 q 114 663 54 631 q 245 688 157 688 q 302 686 265 688 q 355 685 340 685 l 355 1061 l 510 1061 l 510 0 m 355 134 l 355 555 l 260 555 q 208 504 208 555 l 208 176 q 257 126 208 126 q 355 134 269 126 z "},"e":{"ha":555,"x_min":56,"x_max":498,"o":"m 498 85 q 411 0 498 0 l 143 0 q 56 85 56 0 l 56 600 q 143 685 56 685 l 411 685 q 498 600 498 685 l 498 349 l 456 306 l 204 306 l 204 114 l 350 114 l 350 228 l 498 228 l 498 85 m 350 407 l 350 571 l 204 571 l 204 407 l 350 407 z "},"f":{"ha":358,"x_min":18,"x_max":357,"o":"m 357 926 l 243 926 l 243 685 l 342 685 l 342 553 l 243 553 l 243 0 l 89 0 l 89 553 l 18 553 l 18 685 l 89 685 l 89 977 q 175 1061 89 1061 l 357 1061 l 357 926 z "},"g":{"ha":567,"x_min":54,"x_max":510,"o":"m 510 -165 q 422 -250 510 -250 l 153 -250 q 65 -165 65 -250 l 65 -56 l 215 -56 l 215 -138 l 355 -138 l 355 4 l 196 4 q 93 41 131 4 q 54 142 54 77 l 54 561 q 87 654 54 620 q 179 688 121 688 q 355 660 208 688 l 355 685 l 510 685 l 510 -165 m 355 129 l 355 550 q 258 558 277 558 q 208 509 208 558 l 208 180 q 260 129 208 129 l 355 129 z "},"h":{"ha":568,"x_min":56,"x_max":513,"o":"m 513 0 l 357 0 l 357 555 l 211 553 l 211 0 l 56 0 l 56 1061 l 211 1061 l 211 660 q 319 677 265 668 q 428 688 388 688 q 513 604 513 688 l 513 0 z "},"i":{"ha":272,"x_min":58,"x_max":214,"o":"m 214 783 l 58 783 l 58 943 l 214 943 l 214 783 m 212 0 l 60 0 l 60 685 l 212 685 l 212 0 z "},"j":{"ha":272,"x_min":-39,"x_max":214,"o":"m 214 783 l 58 783 l 58 943 l 214 943 l 214 783 m 212 -165 q 126 -250 212 -250 l -39 -250 l -39 -121 l 60 -121 l 60 685 l 212 685 l 212 -165 z "},"k":{"ha":524,"x_min":56,"x_max":513,"o":"m 513 0 l 347 0 l 211 314 l 211 0 l 56 0 l 56 1061 l 211 1061 l 211 424 l 334 685 l 496 685 l 496 682 l 338 371 l 513 0 z "},"l":{"ha":272,"x_min":60,"x_max":212,"o":"m 212 0 l 60 0 l 60 1061 l 212 1061 l 212 0 z "},"m":{"ha":867,"x_min":56,"x_max":811,"o":"m 811 0 l 657 0 l 657 555 l 511 553 l 511 0 l 357 0 l 357 555 l 211 553 l 211 0 l 56 0 l 56 685 l 211 685 l 211 660 q 319 677 265 669 q 428 688 385 688 q 497 657 481 688 q 611 675 554 666 q 726 688 686 688 q 811 604 811 688 l 811 0 z "},"n":{"ha":568,"x_min":56,"x_max":513,"o":"m 513 0 l 357 0 l 357 555 l 211 553 l 211 0 l 56 0 l 56 685 l 211 685 l 211 660 q 319 677 265 669 q 428 688 385 688 q 513 604 513 688 l 513 0 z "},"o":{"ha":564,"x_min":56,"x_max":507,"o":"m 507 85 q 421 0 507 0 l 143 0 q 56 85 56 0 l 56 600 q 143 685 56 685 l 421 685 q 507 600 507 685 l 507 85 m 355 129 l 355 555 l 208 555 l 208 129 l 355 129 z "},"p":{"ha":567,"x_min":56,"x_max":513,"o":"m 513 138 q 453 21 513 54 q 321 -3 410 -3 q 264 -1 301 -3 q 211 0 227 0 l 211 -250 l 56 -250 l 56 685 l 211 685 l 211 660 q 319 677 265 668 q 428 688 388 688 q 513 604 513 688 l 513 138 m 357 180 l 357 555 l 211 553 l 211 129 l 307 129 q 357 180 357 129 z "},"q":{"ha":567,"x_min":54,"x_max":510,"o":"m 510 -250 l 355 -250 l 355 0 l 196 0 q 93 37 131 0 q 54 138 54 73 l 54 561 q 87 654 54 620 q 179 688 121 688 q 355 660 208 688 l 355 685 l 510 685 l 510 -250 m 355 129 l 355 550 q 257 558 271 558 q 208 509 208 558 l 208 180 q 258 129 208 129 l 355 129 z "},"r":{"ha":519,"x_min":56,"x_max":488,"o":"m 488 399 l 334 399 l 334 555 l 211 553 l 211 0 l 56 0 l 56 685 l 211 685 l 211 660 q 307 677 259 669 q 403 688 364 688 q 488 604 488 688 l 488 399 z "},"s":{"ha":539,"x_min":53,"x_max":486,"o":"m 486 85 q 400 0 486 0 l 139 0 q 53 85 53 0 l 53 232 l 201 232 l 201 117 l 338 117 l 338 225 l 100 366 q 53 440 53 393 l 53 600 q 140 685 53 685 l 399 685 q 485 600 485 685 l 485 463 l 338 463 l 338 568 l 201 568 l 201 469 l 439 330 q 486 254 486 303 l 486 85 z "},"t":{"ha":382,"x_min":20,"x_max":351,"o":"m 351 0 l 179 0 q 93 85 93 0 l 93 553 l 20 553 l 20 685 l 93 685 l 93 871 l 248 871 l 248 685 l 347 685 l 347 553 l 248 553 l 248 132 l 351 132 l 351 0 z "},"u":{"ha":568,"x_min":56,"x_max":511,"o":"m 511 0 l 357 0 l 357 24 q 249 6 303 15 q 140 -4 183 -4 q 56 81 56 -4 l 56 685 l 210 685 l 210 129 l 357 132 l 357 685 l 511 685 l 511 0 z "},"v":{"ha":541,"x_min":21,"x_max":519,"o":"m 519 685 l 345 -1 l 196 -1 l 21 685 l 180 685 l 271 235 l 361 685 l 519 685 z "},"w":{"ha":754,"x_min":21,"x_max":733,"o":"m 733 685 l 586 -1 l 450 -1 l 376 378 l 302 -1 l 168 -1 l 21 685 l 170 685 l 244 248 l 318 685 l 436 685 l 510 248 l 585 685 l 733 685 z "},"x":{"ha":528,"x_min":14,"x_max":514,"o":"m 514 0 l 346 0 l 264 215 l 179 0 l 14 0 l 14 3 l 179 353 l 29 685 l 189 685 l 264 486 l 342 685 l 498 685 l 498 682 l 349 354 l 514 0 z "},"y":{"ha":541,"x_min":21,"x_max":519,"o":"m 519 685 l 348 9 l 282 -250 l 123 -250 l 195 5 l 21 685 l 180 685 l 271 235 l 361 685 l 519 685 z "},"z":{"ha":482,"x_min":31,"x_max":443,"o":"m 443 0 l 31 0 l 31 92 l 258 558 l 49 558 l 49 685 l 443 685 l 443 593 l 214 126 l 443 126 l 443 0 z "},"{":{"ha":515,"x_min":36,"x_max":467,"o":"m 467 -168 l 332 -168 q 170 0 170 -168 l 170 325 l 36 456 l 36 481 l 170 611 l 170 893 q 332 1061 170 1061 l 467 1061 l 467 921 q 437 922 458 921 q 405 924 416 924 q 326 867 326 924 l 326 627 q 319 570 326 588 q 283 529 311 553 l 210 468 l 283 406 q 319 363 311 382 q 326 310 326 347 l 326 29 q 407 -30 326 -30 q 438 -29 418 -30 q 467 -28 458 -28 l 467 -168 z "},"|":{"ha":292,"x_min":69,"x_max":222,"o":"m 222 -244 l 69 -244 l 69 1061 l 222 1061 l 222 -244 z "},"}":{"ha":515,"x_min":49,"x_max":479,"o":"m 479 456 l 346 325 l 346 0 q 183 -168 346 -168 l 49 -168 l 49 -28 q 77 -29 56 -28 q 108 -30 97 -30 q 191 29 191 -30 l 191 310 q 197 365 191 348 q 232 406 204 382 l 306 468 l 232 529 q 197 572 204 552 q 191 627 191 587 l 191 867 q 110 923 191 923 q 77 922 98 923 q 49 921 56 921 l 49 1061 l 183 1061 q 346 893 346 1061 l 346 611 l 479 481 l 479 456 z "},"~":{"ha":703,"x_min":87,"x_max":615,"o":"m 615 370 q 536 286 615 286 q 447 307 499 286 l 222 397 l 222 290 l 87 290 l 87 460 q 167 542 87 542 q 254 521 202 542 l 479 431 l 479 538 l 615 538 l 615 370 z "},"Ä":{"ha":627,"x_min":25,"x_max":602,"o":"m 602 0 l 444 0 l 412 201 l 214 201 l 182 0 l 25 0 l 25 3 l 231 1063 l 397 1063 l 602 0 m 390 338 l 313 817 l 235 338 l 390 338 m 491 1107 l 342 1107 l 342 1253 l 491 1253 l 491 1107 m 284 1107 l 136 1107 l 136 1253 l 284 1253 l 284 1107 z "},"Å":{"ha":627,"x_min":25,"x_max":602,"o":"m 602 0 l 444 0 l 412 201 l 214 201 l 182 0 l 25 0 l 25 3 l 231 1063 l 397 1063 l 602 0 m 390 338 l 313 817 l 235 338 l 390 338 m 466 1134 q 394 1063 466 1063 l 227 1063 q 156 1134 156 1063 l 156 1270 q 227 1341 156 1341 l 394 1341 q 466 1270 466 1341 l 466 1134 m 361 1150 l 361 1253 l 261 1253 l 261 1150 l 361 1150 z "},"Ç":{"ha":647,"x_min":64,"x_max":586,"o":"m 586 97 q 489 0 586 0 l 158 0 q 64 97 64 0 l 64 964 q 158 1061 64 1061 l 489 1061 q 586 964 586 1061 l 586 715 l 428 715 l 428 925 l 222 925 l 222 136 l 428 136 l 428 359 l 586 359 l 586 97 m 481 -210 q 416 -275 481 -275 l 246 -275 q 181 -210 181 -275 l 181 -136 l 286 -136 l 286 -193 l 375 -193 l 375 -136 q 307 -106 341 -121 q 277 -45 277 -87 l 277 1 l 379 1 l 379 -40 q 450 -75 414 -57 q 481 -137 481 -96 l 481 -210 z "},"É":{"ha":549,"x_min":64,"x_max":504,"o":"m 504 0 l 64 0 l 64 1061 l 500 1061 l 500 921 l 222 921 l 222 611 l 461 611 l 461 473 l 222 473 l 222 140 l 504 140 l 504 0 m 471 1286 l 273 1107 l 159 1107 l 159 1113 l 276 1293 l 471 1293 l 471 1286 z "},"Ñ":{"ha":665,"x_min":64,"x_max":602,"o":"m 602 0 l 463 0 l 208 668 q 218 591 218 619 l 218 0 l 64 0 l 64 1061 l 203 1061 l 457 407 q 447 484 447 456 l 447 1061 l 602 1061 l 602 0 m 510 1170 q 446 1106 510 1106 q 349 1130 411 1106 q 258 1167 304 1149 l 258 1107 l 152 1107 l 152 1215 q 216 1278 152 1278 q 311 1255 252 1278 q 404 1217 357 1236 l 404 1277 l 510 1277 l 510 1170 z "},"Ö":{"ha":663,"x_min":64,"x_max":599,"o":"m 599 97 q 503 0 599 0 l 158 0 q 64 97 64 0 l 64 964 q 158 1061 64 1061 l 503 1061 q 599 964 599 1061 l 599 97 m 440 136 l 440 925 l 222 925 l 222 136 l 440 136 m 509 1107 l 360 1107 l 360 1253 l 509 1253 l 509 1107 m 302 1107 l 153 1107 l 153 1253 l 302 1253 l 302 1107 z "},"Ü":{"ha":659,"x_min":64,"x_max":595,"o":"m 595 97 q 497 0 595 0 l 160 0 q 64 97 64 0 l 64 1061 l 222 1061 l 222 136 l 436 136 l 436 1061 l 595 1061 l 595 97 m 507 1107 l 358 1107 l 358 1253 l 507 1253 l 507 1107 m 300 1107 l 151 1107 l 151 1253 l 300 1253 l 300 1107 z "},"á":{"ha":553,"x_min":53,"x_max":497,"o":"m 497 0 l 349 0 l 349 24 q 243 7 296 16 q 138 -3 174 -3 q 53 81 53 -3 l 53 328 q 140 412 53 412 l 350 412 l 350 570 l 201 570 l 201 472 l 61 472 l 61 600 q 149 685 61 685 l 411 685 q 497 600 497 685 l 497 0 m 350 123 l 350 307 l 201 307 l 201 118 l 350 123 m 482 909 l 285 730 l 171 730 l 171 736 l 288 916 l 482 916 l 482 909 z "},"à":{"ha":553,"x_min":53,"x_max":497,"o":"m 497 0 l 349 0 l 349 24 q 243 7 296 16 q 138 -3 174 -3 q 53 81 53 -3 l 53 328 q 140 412 53 412 l 350 412 l 350 570 l 201 570 l 201 472 l 61 472 l 61 600 q 149 685 61 685 l 411 685 q 497 600 497 685 l 497 0 m 350 123 l 350 307 l 201 307 l 201 118 l 350 123 m 391 730 l 277 730 l 79 909 l 79 916 l 273 916 l 391 736 l 391 730 z "},"â":{"ha":553,"x_min":53,"x_max":497,"o":"m 497 0 l 349 0 l 349 24 q 243 7 296 16 q 138 -3 174 -3 q 53 81 53 -3 l 53 328 q 140 412 53 412 l 350 412 l 350 570 l 201 570 l 201 472 l 61 472 l 61 600 q 149 685 61 685 l 411 685 q 497 600 497 685 l 497 0 m 350 123 l 350 307 l 201 307 l 201 118 l 350 123 m 475 730 l 373 730 l 280 808 l 187 730 l 87 730 l 87 736 l 227 913 l 334 913 l 475 736 l 475 730 z "},"ä":{"ha":553,"x_min":53,"x_max":497,"o":"m 497 0 l 349 0 l 349 24 q 243 7 296 16 q 138 -3 174 -3 q 53 81 53 -3 l 53 328 q 140 412 53 412 l 350 412 l 350 570 l 201 570 l 201 472 l 61 472 l 61 600 q 149 685 61 685 l 411 685 q 497 600 497 685 l 497 0 m 350 123 l 350 307 l 201 307 l 201 118 l 350 123 m 458 730 l 310 730 l 310 876 l 458 876 l 458 730 m 252 730 l 103 730 l 103 876 l 252 876 l 252 730 z "},"ã":{"ha":553,"x_min":53,"x_max":497,"o":"m 497 0 l 349 0 l 349 24 q 243 7 296 16 q 138 -3 174 -3 q 53 81 53 -3 l 53 328 q 140 412 53 412 l 350 412 l 350 570 l 201 570 l 201 472 l 61 472 l 61 600 q 149 685 61 685 l 411 685 q 497 600 497 685 l 497 0 m 350 123 l 350 307 l 201 307 l 201 118 l 350 123 m 460 793 q 397 729 460 729 q 300 753 361 729 q 209 790 254 772 l 209 730 l 102 730 l 102 838 q 166 901 102 901 q 262 878 203 901 q 354 840 307 859 l 354 900 l 460 900 l 460 793 z "},"å":{"ha":553,"x_min":53,"x_max":497,"o":"m 497 0 l 349 0 l 349 24 q 243 7 296 16 q 138 -3 174 -3 q 53 81 53 -3 l 53 328 q 140 412 53 412 l 350 412 l 350 570 l 201 570 l 201 472 l 61 472 l 61 600 q 149 685 61 685 l 411 685 q 497 600 497 685 l 497 0 m 350 123 l 350 307 l 201 307 l 201 118 l 350 123 m 437 802 q 365 730 437 730 l 198 730 q 127 802 127 730 l 127 937 q 198 1008 127 1008 l 365 1008 q 437 937 437 1008 l 437 802 m 332 818 l 332 921 l 232 921 l 232 818 l 332 818 z "},"ç":{"ha":554,"x_min":56,"x_max":498,"o":"m 498 85 q 412 0 498 0 l 143 0 q 56 85 56 0 l 56 600 q 143 685 56 685 l 412 685 q 498 600 498 685 l 498 437 l 347 437 l 347 555 l 208 555 l 208 129 l 347 129 l 347 260 l 498 260 l 498 85 m 426 -210 q 361 -275 426 -275 l 191 -275 q 126 -210 126 -275 l 126 -136 l 231 -136 l 231 -193 l 320 -193 l 320 -136 q 252 -106 286 -121 q 222 -45 222 -87 l 222 1 l 324 1 l 324 -40 q 395 -75 359 -57 q 426 -137 426 -96 l 426 -210 z "},"é":{"ha":555,"x_min":56,"x_max":498,"o":"m 498 85 q 411 0 498 0 l 143 0 q 56 85 56 0 l 56 600 q 143 685 56 685 l 411 685 q 498 600 498 685 l 498 349 l 456 306 l 204 306 l 204 114 l 350 114 l 350 228 l 498 228 l 498 85 m 350 407 l 350 571 l 204 571 l 204 407 l 350 407 m 477 909 l 279 730 l 165 730 l 165 736 l 282 916 l 477 916 l 477 909 z "},"è":{"ha":555,"x_min":56,"x_max":498,"o":"m 498 85 q 411 0 498 0 l 143 0 q 56 85 56 0 l 56 600 q 143 685 56 685 l 411 685 q 498 600 498 685 l 498 349 l 456 306 l 204 306 l 204 114 l 350 114 l 350 228 l 498 228 l 498 85 m 350 407 l 350 571 l 204 571 l 204 407 l 350 407 m 387 730 l 273 730 l 76 909 l 76 916 l 269 916 l 387 736 l 387 730 z "},"ê":{"ha":555,"x_min":56,"x_max":498,"o":"m 498 85 q 411 0 498 0 l 143 0 q 56 85 56 0 l 56 600 q 143 685 56 685 l 411 685 q 498 600 498 685 l 498 349 l 456 306 l 204 306 l 204 114 l 350 114 l 350 228 l 498 228 l 498 85 m 350 407 l 350 571 l 204 571 l 204 407 l 350 407 m 472 730 l 370 730 l 277 808 l 184 730 l 84 730 l 84 736 l 224 913 l 332 913 l 472 736 l 472 730 z "},"ë":{"ha":555,"x_min":56,"x_max":498,"o":"m 498 85 q 411 0 498 0 l 143 0 q 56 85 56 0 l 56 600 q 143 685 56 685 l 411 685 q 498 600 498 685 l 498 349 l 456 306 l 204 306 l 204 114 l 350 114 l 350 228 l 498 228 l 498 85 m 350 407 l 350 571 l 204 571 l 204 407 l 350 407 m 455 730 l 307 730 l 307 876 l 455 876 l 455 730 m 248 730 l 100 730 l 100 876 l 248 876 l 248 730 z "},"í":{"ha":272,"x_min":26,"x_max":338,"o":"m 212 0 l 60 0 l 60 685 l 212 685 l 212 0 m 338 909 l 140 730 l 26 730 l 26 736 l 143 916 l 338 916 l 338 909 z "},"ì":{"ha":272,"x_min":-68,"x_max":243,"o":"m 212 0 l 60 0 l 60 685 l 212 685 l 212 0 m 243 730 l 130 730 l -68 909 l -68 916 l 125 916 l 243 736 l 243 730 z "},"î":{"ha":272,"x_min":-57,"x_max":331,"o":"m 212 0 l 60 0 l 60 685 l 212 685 l 212 0 m 331 730 l 229 730 l 136 808 l 43 730 l -57 730 l -57 736 l 83 913 l 191 913 l 331 736 l 331 730 z "},"ï":{"ha":272,"x_min":-41,"x_max":315,"o":"m 212 0 l 60 0 l 60 685 l 212 685 l 212 0 m 315 730 l 166 730 l 166 876 l 315 876 l 315 730 m 108 730 l -41 730 l -41 876 l 108 876 l 108 730 z "},"ñ":{"ha":568,"x_min":56,"x_max":513,"o":"m 513 0 l 357 0 l 357 555 l 211 553 l 211 0 l 56 0 l 56 685 l 211 685 l 211 660 q 319 677 265 669 q 428 688 385 688 q 513 604 513 688 l 513 0 m 463 793 q 399 729 463 729 q 302 753 364 729 q 212 790 257 772 l 212 730 l 105 730 l 105 838 q 169 901 105 901 q 264 878 205 901 q 357 840 310 859 l 357 900 l 463 900 l 463 793 z "},"ó":{"ha":564,"x_min":56,"x_max":507,"o":"m 507 85 q 421 0 507 0 l 143 0 q 56 85 56 0 l 56 600 q 143 685 56 685 l 421 685 q 507 600 507 685 l 507 85 m 355 129 l 355 555 l 208 555 l 208 129 l 355 129 m 484 909 l 286 730 l 172 730 l 172 736 l 289 916 l 484 916 l 484 909 z "},"ò":{"ha":564,"x_min":56,"x_max":507,"o":"m 507 85 q 421 0 507 0 l 143 0 q 56 85 56 0 l 56 600 q 143 685 56 685 l 421 685 q 507 600 507 685 l 507 85 m 355 129 l 355 555 l 208 555 l 208 129 l 355 129 m 387 730 l 273 730 l 76 909 l 76 916 l 269 916 l 387 736 l 387 730 z "},"ô":{"ha":564,"x_min":56,"x_max":507,"o":"m 507 85 q 421 0 507 0 l 143 0 q 56 85 56 0 l 56 600 q 143 685 56 685 l 421 685 q 507 600 507 685 l 507 85 m 355 129 l 355 555 l 208 555 l 208 129 l 355 129 m 470 730 l 368 730 l 275 808 l 182 730 l 82 730 l 82 736 l 222 913 l 330 913 l 470 736 l 470 730 z "},"ö":{"ha":564,"x_min":56,"x_max":507,"o":"m 507 85 q 421 0 507 0 l 143 0 q 56 85 56 0 l 56 600 q 143 685 56 685 l 421 685 q 507 600 507 685 l 507 85 m 355 129 l 355 555 l 208 555 l 208 129 l 355 129 m 459 730 l 311 730 l 311 876 l 459 876 l 459 730 m 252 730 l 104 730 l 104 876 l 252 876 l 252 730 z "},"õ":{"ha":564,"x_min":56,"x_max":507,"o":"m 507 85 q 421 0 507 0 l 143 0 q 56 85 56 0 l 56 600 q 143 685 56 685 l 421 685 q 507 600 507 685 l 507 85 m 355 129 l 355 555 l 208 555 l 208 129 l 355 129 m 460 793 q 397 729 460 729 q 300 753 361 729 q 209 790 254 772 l 209 730 l 102 730 l 102 838 q 166 901 102 901 q 262 878 203 901 q 354 840 307 859 l 354 900 l 460 900 l 460 793 z "},"ú":{"ha":568,"x_min":56,"x_max":511,"o":"m 511 0 l 357 0 l 357 24 q 249 6 303 15 q 140 -4 183 -4 q 56 81 56 -4 l 56 685 l 210 685 l 210 129 l 357 132 l 357 685 l 511 685 l 511 0 m 483 909 l 286 730 l 172 730 l 172 736 l 288 916 l 483 916 l 483 909 z "},"ù":{"ha":568,"x_min":56,"x_max":511,"o":"m 511 0 l 357 0 l 357 24 q 249 6 303 15 q 140 -4 183 -4 q 56 81 56 -4 l 56 685 l 210 685 l 210 129 l 357 132 l 357 685 l 511 685 l 511 0 m 389 730 l 275 730 l 78 909 l 78 916 l 271 916 l 389 736 l 389 730 z "},"û":{"ha":568,"x_min":56,"x_max":511,"o":"m 511 0 l 357 0 l 357 24 q 249 6 303 15 q 140 -4 183 -4 q 56 81 56 -4 l 56 685 l 210 685 l 210 129 l 357 132 l 357 685 l 511 685 l 511 0 m 479 730 l 377 730 l 284 808 l 191 730 l 91 730 l 91 736 l 231 913 l 338 913 l 479 736 l 479 730 z "},"ü":{"ha":568,"x_min":56,"x_max":511,"o":"m 511 0 l 357 0 l 357 24 q 249 6 303 15 q 140 -4 183 -4 q 56 81 56 -4 l 56 685 l 210 685 l 210 129 l 357 132 l 357 685 l 511 685 l 511 0 m 462 730 l 313 730 l 313 876 l 462 876 l 462 730 m 255 730 l 106 730 l 106 876 l 255 876 l 255 730 z "},"†":{"ha":619,"x_min":47,"x_max":572,"o":"m 572 660 l 383 660 l 383 0 l 235 0 l 235 660 l 47 660 l 47 798 l 235 798 l 235 1061 l 383 1061 l 383 798 l 572 798 l 572 660 z "},"°":{"ha":446,"x_min":52,"x_max":395,"o":"m 395 693 q 313 610 395 610 l 134 610 q 52 693 52 610 l 52 979 q 134 1061 52 1061 l 313 1061 q 395 979 395 1061 l 395 693 m 289 707 l 289 964 l 155 964 l 155 707 l 289 707 z "},"¢":{"ha":554,"x_min":56,"x_max":498,"o":"m 498 279 q 449 199 498 214 q 345 195 432 195 l 345 0 l 211 0 l 211 195 q 106 199 123 195 q 56 279 56 214 l 56 786 q 106 866 56 851 q 211 871 123 871 l 211 1061 l 345 1061 l 345 871 q 449 866 432 871 q 498 786 498 851 l 498 624 l 347 624 l 347 743 l 208 743 l 208 322 l 347 322 l 347 454 l 498 454 l 498 279 z "},"£":{"ha":639,"x_min":33,"x_max":595,"o":"m 595 0 l 33 0 l 33 136 l 104 136 l 104 444 l 33 444 l 33 578 l 104 578 l 104 964 q 201 1061 104 1061 l 492 1061 q 587 965 587 1061 l 587 734 l 432 734 l 432 926 l 260 926 l 260 578 l 449 578 l 449 444 l 260 444 l 260 136 l 595 136 l 595 0 z "},"§":{"ha":619,"x_min":60,"x_max":559,"o":"m 559 85 q 473 0 559 0 l 146 0 q 60 85 60 0 l 60 245 l 214 245 l 214 117 l 407 117 l 407 249 l 113 371 q 60 447 60 393 l 60 567 q 94 644 60 619 q 178 684 96 645 q 95 724 96 722 q 60 800 60 749 l 60 977 q 146 1061 60 1061 l 473 1061 q 559 977 559 1061 l 559 815 l 407 815 l 407 945 l 214 945 l 214 812 l 507 690 q 559 614 559 668 l 559 494 q 526 417 559 441 q 441 378 525 416 q 525 338 524 338 q 559 261 559 313 l 559 85 m 410 471 l 410 590 l 310 636 l 211 590 l 211 471 l 310 425 l 410 471 z "},"•":{"ha":640,"x_min":64,"x_max":575,"o":"m 575 368 q 476 269 575 269 l 164 269 q 64 368 64 269 l 64 692 q 164 790 64 790 l 476 790 q 575 692 575 790 l 575 368 z "},"¶":{"ha":705,"x_min":53,"x_max":642,"o":"m 642 0 l 497 0 l 497 380 l 416 380 l 416 0 l 272 0 l 272 380 l 149 380 q 53 476 53 380 l 53 965 q 149 1061 53 1061 l 642 1061 l 642 0 m 497 521 l 497 921 l 326 921 l 326 521 l 497 521 z "},"ß":{"ha":572,"x_min":56,"x_max":515,"o":"m 515 93 q 422 0 515 0 l 273 0 l 273 122 l 363 122 l 363 435 l 269 528 l 269 581 l 358 669 l 358 875 q 301 932 358 932 l 211 932 l 211 0 l 56 0 l 56 1061 l 347 1061 q 513 895 513 1061 l 513 705 q 486 619 513 652 q 415 554 484 617 q 490 489 488 492 q 515 400 515 458 l 515 93 z "},"®":{"ha":810,"x_min":62,"x_max":747,"o":"m 747 61 q 686 0 747 0 l 123 0 q 62 61 62 0 l 62 1000 q 123 1061 62 1061 l 686 1061 q 747 1000 747 1061 l 747 61 m 675 69 l 675 991 l 135 991 l 135 69 l 675 69 m 582 233 l 471 233 l 375 492 l 383 570 l 456 570 l 456 739 l 355 739 l 355 233 l 245 233 l 245 831 l 501 831 q 564 766 564 831 l 564 550 q 488 486 564 488 l 582 233 z "},"©":{"ha":810,"x_min":62,"x_max":747,"o":"m 747 61 q 686 0 747 0 l 123 0 q 62 61 62 0 l 62 1000 q 123 1061 62 1061 l 686 1061 q 747 1000 747 1061 l 747 61 m 675 69 l 675 991 l 135 991 l 135 69 l 675 69 m 559 297 q 496 233 559 233 l 311 233 q 248 297 248 233 l 248 766 q 311 832 248 832 l 496 832 q 559 766 559 832 l 559 618 l 450 618 l 450 732 l 357 732 l 357 332 l 450 332 l 450 453 l 559 453 l 559 297 z "},"™":{"ha":833,"x_min":35,"x_max":783,"o":"m 783 449 l 685 449 l 685 778 l 618 509 l 558 509 l 492 778 l 492 449 l 395 449 l 395 1061 l 498 1061 l 589 734 l 681 1061 l 783 1061 l 783 449 m 343 970 l 239 970 l 239 449 l 140 449 l 140 970 l 35 970 l 35 1061 l 343 1061 l 343 970 z "},"´":{"ha":567,"x_min":98,"x_max":410,"o":"m 410 909 l 212 730 l 98 730 l 98 736 l 215 916 l 410 916 l 410 909 z "},"¨":{"ha":567,"x_min":106,"x_max":461,"o":"m 461 730 l 313 730 l 313 876 l 461 876 l 461 730 m 254 730 l 106 730 l 106 876 l 254 876 l 254 730 z "},"≠":{"ha":612,"x_min":69,"x_max":543,"o":"m 543 265 l 308 265 l 254 47 l 174 66 l 223 265 l 69 265 l 69 346 l 243 346 l 285 513 l 69 513 l 69 595 l 305 595 l 359 812 l 438 792 l 389 595 l 543 595 l 543 513 l 369 513 l 328 346 l 543 346 l 543 265 z "},"Æ":{"ha":865,"x_min":18,"x_max":821,"o":"m 821 0 l 392 0 l 392 201 l 227 201 l 174 0 l 18 0 l 18 3 l 321 1061 l 817 1061 l 817 921 l 546 921 l 546 612 l 778 612 l 778 473 l 546 473 l 546 140 l 821 140 l 821 0 m 392 338 l 392 852 l 261 338 l 392 338 z "},"Ø":{"ha":663,"x_min":64,"x_max":599,"o":"m 599 97 q 503 0 599 0 l 267 0 l 237 -104 l 77 -104 q 77 -96 77 -96 l 107 11 q 64 97 64 35 l 64 964 q 158 1061 64 1061 l 401 1061 l 431 1165 l 593 1165 q 593 1157 593 1157 l 561 1046 q 599 964 599 1023 l 599 97 m 440 136 l 440 925 l 222 925 l 222 136 l 440 136 z "},"∞":{"ha":861,"x_min":24,"x_max":838,"o":"m 838 171 q 762 94 838 94 l 591 94 q 498 171 548 94 l 431 273 l 364 170 q 321 113 336 125 q 273 94 302 95 l 101 94 q 24 171 24 94 l 24 515 q 101 592 24 592 l 273 592 q 366 515 317 591 l 432 413 l 498 515 q 591 592 548 592 l 762 592 q 838 515 838 592 l 838 171 m 747 174 l 747 513 l 586 513 l 477 344 l 587 174 l 747 174 m 386 342 l 274 513 l 115 513 l 115 174 l 277 174 l 386 342 z "},"±":{"ha":568,"x_min":46,"x_max":524,"o":"m 521 441 l 325 441 l 325 269 l 244 269 l 244 441 l 47 441 l 47 518 l 244 518 l 244 697 l 325 697 l 325 518 l 521 518 l 521 441 m 524 129 l 46 129 l 46 212 l 524 212 l 524 129 z "},"≤":{"ha":473,"x_min":52,"x_max":396,"o":"m 396 205 l 392 205 l 52 439 l 52 488 l 396 725 l 396 631 l 144 465 l 396 299 l 396 205 m 396 98 l 52 98 l 52 179 l 396 179 l 396 98 z "},"≥":{"ha":473,"x_min":65,"x_max":410,"o":"m 410 439 l 65 205 l 65 299 l 316 465 l 65 631 l 65 725 l 69 725 l 410 488 l 410 439 m 409 98 l 65 98 l 65 179 l 409 179 l 409 98 z "},"¥":{"ha":615,"x_min":17,"x_max":597,"o":"m 597 1055 l 475 668 l 582 668 l 582 542 l 435 542 l 404 441 l 582 441 l 582 314 l 387 314 l 387 0 l 228 0 l 228 314 l 35 314 l 35 441 l 211 441 l 180 542 l 35 542 l 35 668 l 140 668 q 18 1061 17 1059 l 182 1061 l 309 600 l 435 1061 l 597 1061 q 597 1055 597 1057 z "},"µ":{"ha":532,"x_min":74,"x_max":458,"o":"m 458 0 l 370 0 l 370 19 q 245 -1 323 -1 q 163 26 181 -1 l 163 -250 l 74 -250 l 74 660 l 163 660 l 163 172 q 256 77 163 77 q 369 88 321 77 l 369 660 l 458 660 l 458 0 z "},"μ":{"ha":532,"x_min":74,"x_max":458,"o":"m 458 0 l 370 0 l 370 19 q 245 -1 323 -1 q 163 26 181 -1 l 163 -250 l 74 -250 l 74 660 l 163 660 l 163 172 q 256 77 163 77 q 369 88 321 77 l 369 660 l 458 660 l 458 0 z "},"∂":{"ha":589,"x_min":84,"x_max":505,"o":"m 505 583 l 505 75 q 484 21 505 42 q 430 0 463 0 l 159 0 q 105 21 126 0 q 84 75 84 42 l 84 510 q 105 564 84 543 q 159 585 126 585 l 401 585 l 180 1061 l 282 1061 l 505 583 m 410 83 l 410 503 l 178 503 l 178 83 l 410 83 z "},"∑":{"ha":496,"x_min":58,"x_max":440,"o":"m 440 0 l 58 0 l 58 73 l 317 540 l 58 977 l 58 1061 l 436 1061 l 436 978 l 151 978 l 393 580 l 393 499 l 152 83 l 440 83 l 440 0 z "},"∏":{"ha":545,"x_min":26,"x_max":518,"o":"m 518 978 l 418 978 l 418 0 l 326 0 l 326 978 l 216 978 l 216 0 l 124 0 l 124 978 l 26 978 l 26 1061 l 518 1061 l 518 978 z "},"π":{"ha":545,"x_min":26,"x_max":518,"o":"m 518 522 l 418 522 l 418 0 l 326 0 l 326 522 l 216 522 l 216 0 l 124 0 l 124 522 l 26 522 l 26 606 l 518 606 l 518 522 z "},"∫":{"ha":330,"x_min":-22,"x_max":323,"o":"m 323 982 l 196 982 l 196 -196 q 178 -247 196 -226 q 123 -271 158 -271 l -22 -272 l -22 -193 l 106 -193 l 107 985 q 183 1061 107 1061 l 323 1061 l 323 982 z "},"ª":{"ha":479,"x_min":58,"x_max":421,"o":"m 421 519 l 294 519 l 294 538 q 126 517 136 517 q 58 582 58 517 l 58 779 q 129 846 58 846 l 296 846 l 296 966 l 180 966 l 180 893 l 64 893 l 64 994 q 135 1061 64 1061 l 349 1061 q 421 994 421 1061 l 421 519 m 296 618 l 296 762 l 180 762 l 180 614 l 296 618 m 421 347 l 58 347 l 58 452 l 421 452 l 421 347 z "},"º":{"ha":485,"x_min":58,"x_max":427,"o":"m 427 587 q 355 519 427 519 l 131 519 q 58 587 58 519 l 58 994 q 131 1061 58 1061 l 355 1061 q 427 994 427 1061 l 427 587 m 300 621 l 300 960 l 183 960 l 183 621 l 300 621 m 427 347 l 58 347 l 58 452 l 427 452 l 427 347 z "},"Ω":{"ha":716,"x_min":40,"x_max":678,"o":"m 678 -1 l 415 -1 l 415 332 l 540 332 l 540 978 l 180 977 l 179 332 l 304 332 l 304 -1 l 40 -1 l 40 87 l 224 87 l 224 248 l 160 248 q 106 269 127 248 q 85 323 85 290 l 85 986 q 106 1040 85 1019 q 160 1061 127 1061 l 557 1061 q 612 1040 590 1061 q 634 986 634 1019 l 634 323 q 613 269 634 290 q 559 248 592 248 l 494 248 l 494 87 l 678 87 l 678 -1 z "},"Ω":{"ha":716,"x_min":40,"x_max":678,"o":"m 678 -1 l 415 -1 l 415 332 l 540 332 l 540 978 l 180 977 l 179 332 l 304 332 l 304 -1 l 40 -1 l 40 87 l 224 87 l 224 248 l 160 248 q 106 269 127 248 q 85 323 85 290 l 85 986 q 106 1040 85 1019 q 160 1061 127 1061 l 557 1061 q 612 1040 590 1061 q 634 986 634 1019 l 634 323 q 613 269 634 290 q 559 248 592 248 l 494 248 l 494 87 l 678 87 l 678 -1 z "},"æ":{"ha":827,"x_min":53,"x_max":771,"o":"m 771 85 q 685 0 771 0 l 431 0 q 359 26 380 0 q 248 9 304 18 q 138 -3 174 -3 q 53 81 53 -3 l 53 326 q 140 411 53 411 l 343 411 l 343 570 l 201 570 l 201 471 l 61 471 l 61 600 q 149 685 61 685 l 685 685 q 771 600 771 685 l 771 349 l 728 307 l 484 307 l 484 114 l 623 114 l 623 229 l 771 229 l 771 85 m 623 410 l 623 571 l 484 571 l 484 410 l 623 410 m 343 122 l 343 307 l 201 307 l 201 117 l 343 122 z "},"ø":{"ha":564,"x_min":56,"x_max":507,"o":"m 507 85 q 421 0 507 0 l 240 0 l 204 -104 l 57 -104 q 57 -96 57 -97 l 93 9 q 56 85 56 28 l 56 600 q 143 685 56 685 l 321 685 l 357 789 l 505 789 q 505 781 506 781 l 469 675 q 507 600 507 656 l 507 85 m 355 129 l 355 555 l 208 555 l 208 129 l 355 129 z "},"¿":{"ha":589,"x_min":50,"x_max":541,"o":"m 389 899 l 229 899 l 229 1061 l 389 1061 l 389 899 m 541 97 q 443 0 541 0 l 147 0 q 50 97 50 0 l 50 317 q 78 406 50 368 l 232 614 l 232 814 l 386 814 l 386 633 q 359 542 386 577 l 205 335 l 205 132 l 386 132 l 386 325 l 541 325 l 541 97 z "},"¡":{"ha":297,"x_min":64,"x_max":233,"o":"m 227 899 l 69 899 l 69 1061 l 227 1061 l 227 899 m 233 0 l 64 0 l 86 814 l 211 814 l 233 0 z "},"¬":{"ha":639,"x_min":81,"x_max":558,"o":"m 558 225 l 474 225 l 474 423 l 81 423 l 81 507 l 558 507 l 558 225 z "},"√":{"ha":660,"x_min":12,"x_max":647,"o":"m 647 1061 l 349 -1 l 193 -1 l 12 367 l 184 367 l 258 174 l 484 1061 l 647 1061 z "},"ƒ":{"ha":492,"x_min":-77,"x_max":484,"o":"m 484 1061 l 467 926 l 338 926 l 306 685 l 418 685 l 401 553 l 288 553 l 192 -165 q 96 -250 180 -250 l -77 -250 l -60 -121 l 45 -121 l 135 553 l 58 553 l 75 685 l 151 685 l 191 977 q 288 1061 201 1061 l 484 1061 z "},"≈":{"ha":701,"x_min":115,"x_max":586,"o":"m 586 545 q 530 487 586 487 q 460 500 496 487 l 204 598 l 204 491 l 115 491 l 115 633 q 171 691 115 691 q 241 677 205 691 l 497 580 l 497 687 l 586 687 l 586 545 m 586 277 q 530 219 586 219 q 460 233 496 219 l 204 330 l 204 223 l 115 223 l 115 365 q 171 423 115 423 q 241 409 205 423 l 497 312 l 497 419 l 586 419 l 586 277 z "},"Δ":{"ha":555,"x_min":31,"x_max":526,"o":"m 526 0 l 31 0 l 31 83 l 232 1064 l 325 1064 q 431 547 332 1025 q 526 80 526 81 l 526 0 m 432 90 l 277 895 l 122 90 l 432 90 z "},"∆":{"ha":555,"x_min":31,"x_max":526,"o":"m 526 0 l 31 0 l 31 83 l 232 1064 l 325 1064 q 431 547 332 1025 q 526 80 526 81 l 526 0 m 432 90 l 277 895 l 122 90 l 432 90 z "},"«":{"ha":703,"x_min":45,"x_max":648,"o":"m 648 106 l 479 106 l 307 364 l 307 389 l 479 647 l 648 647 l 648 642 l 472 376 l 648 106 m 386 106 l 216 106 l 45 364 l 45 389 l 216 647 l 386 647 l 386 642 l 211 376 l 386 106 z "},"»":{"ha":703,"x_min":54,"x_max":659,"o":"m 659 364 l 488 106 l 317 106 l 317 111 l 493 376 l 317 647 l 488 647 l 659 389 l 659 364 m 396 364 l 224 106 l 54 106 l 54 111 l 231 376 l 54 647 l 224 647 l 396 389 l 396 364 z "},"…":{"ha":768,"x_min":52,"x_max":715,"o":"m 715 0 l 562 0 l 562 164 l 715 164 l 715 0 m 460 0 l 307 0 l 307 164 l 460 164 l 460 0 m 204 0 l 52 0 l 52 164 l 204 164 l 204 0 z "}," ":{"ha":143,"x_min":0,"x_max":0,"o":""},"À":{"ha":627,"x_min":25,"x_max":602,"o":"m 602 0 l 444 0 l 412 201 l 214 201 l 182 0 l 25 0 l 25 3 l 231 1063 l 397 1063 l 602 0 m 390 338 l 313 817 l 235 338 l 390 338 m 408 1109 l 294 1109 l 96 1288 l 96 1294 l 290 1294 l 408 1114 l 408 1109 z "},"Ã":{"ha":627,"x_min":25,"x_max":602,"o":"m 602 0 l 444 0 l 412 201 l 214 201 l 182 0 l 25 0 l 25 3 l 231 1063 l 397 1063 l 602 0 m 390 338 l 313 817 l 235 338 l 390 338 m 483 1173 q 419 1109 483 1109 q 322 1133 384 1109 q 231 1171 277 1152 l 231 1111 l 125 1111 l 125 1218 q 189 1282 125 1282 q 284 1259 225 1282 q 376 1221 330 1240 l 376 1280 l 483 1280 l 483 1173 z "},"Õ":{"ha":663,"x_min":64,"x_max":599,"o":"m 599 97 q 503 0 599 0 l 158 0 q 64 97 64 0 l 64 964 q 158 1061 64 1061 l 503 1061 q 599 964 599 1061 l 599 97 m 440 136 l 440 925 l 222 925 l 222 136 l 440 136 m 509 1173 q 446 1109 509 1109 q 349 1133 410 1109 q 258 1171 303 1152 l 258 1111 l 151 1111 l 151 1218 q 215 1282 151 1282 q 311 1259 252 1282 q 403 1221 356 1240 l 403 1280 l 509 1280 l 509 1173 z "},"Œ":{"ha":897,"x_min":64,"x_max":852,"o":"m 852 0 l 160 0 q 64 97 64 0 l 64 964 q 160 1061 64 1061 l 848 1061 l 848 921 l 578 921 l 578 612 l 810 612 l 810 473 l 578 473 l 578 140 l 852 140 l 852 0 m 421 136 l 421 925 l 222 925 l 222 136 l 421 136 z "},"œ":{"ha":838,"x_min":56,"x_max":782,"o":"m 782 85 q 696 0 782 0 l 143 0 q 56 85 56 0 l 56 600 q 143 685 56 685 l 696 685 q 782 600 782 685 l 782 349 l 739 306 l 493 306 l 493 114 l 633 114 l 633 228 l 782 228 l 782 85 m 633 407 l 633 571 l 493 571 l 493 407 l 633 407 m 351 126 l 351 558 l 207 558 l 207 126 l 351 126 z "},"–":{"ha":597,"x_min":52,"x_max":546,"o":"m 546 335 l 52 335 l 52 479 l 546 479 l 546 335 z "},"—":{"ha":905,"x_min":52,"x_max":852,"o":"m 852 335 l 52 335 l 52 479 l 852 479 l 852 335 z "},"“":{"ha":498,"x_min":33,"x_max":454,"o":"m 454 1061 l 421 729 l 260 729 l 354 1061 l 454 1061 m 229 1061 l 195 729 l 33 729 l 129 1061 l 229 1061 z "},"”":{"ha":498,"x_min":43,"x_max":464,"o":"m 464 1061 l 370 729 l 269 729 l 304 1061 l 464 1061 m 237 1061 l 144 729 l 43 729 l 78 1061 l 237 1061 z "},"‘":{"ha":272,"x_min":35,"x_max":229,"o":"m 229 1061 l 195 729 l 35 729 l 129 1061 l 229 1061 z "},"’":{"ha":272,"x_min":43,"x_max":237,"o":"m 237 1061 l 144 729 l 43 729 l 78 1061 l 237 1061 z "},"÷":{"ha":568,"x_min":47,"x_max":521,"o":"m 355 640 q 334 589 355 610 q 283 568 313 568 q 234 589 254 568 q 213 640 213 610 q 234 691 213 670 q 283 712 254 712 q 334 691 313 712 q 355 640 355 670 m 521 424 l 47 424 l 47 509 l 521 509 l 521 424 m 355 292 q 334 241 355 262 q 283 220 313 220 q 234 241 254 220 q 213 292 213 262 q 234 343 213 321 q 283 364 254 364 q 334 343 313 364 q 355 292 355 321 z "},"◊":{"ha":560,"x_min":20,"x_max":541,"o":"m 541 389 l 306 45 l 257 45 l 20 389 l 257 734 l 306 734 l 541 389 m 447 389 l 281 641 l 115 389 l 281 138 l 447 389 z "},"ÿ":{"ha":541,"x_min":21,"x_max":519,"o":"m 519 685 l 348 9 l 282 -250 l 123 -250 l 195 5 l 21 685 l 180 685 l 271 235 l 361 685 l 519 685 m 448 730 l 300 730 l 300 876 l 448 876 l 448 730 m 241 730 l 93 730 l 93 876 l 241 876 l 241 730 z "},"Ÿ":{"ha":615,"x_min":18,"x_max":597,"o":"m 597 1055 l 457 612 q 387 390 431 546 l 387 0 l 228 0 l 228 390 q 197 502 217 443 q 158 612 161 603 l 18 1055 q 18 1061 18 1056 l 182 1061 l 309 600 l 435 1061 l 597 1061 q 597 1055 597 1057 m 486 1107 l 337 1107 l 337 1253 l 486 1253 l 486 1107 m 279 1107 l 130 1107 l 130 1253 l 279 1253 l 279 1107 z "},"⁄":{"ha":220,"x_min":-221,"x_max":440,"o":"m 440 1042 l -130 0 l -221 0 l -221 19 l 349 1061 l 440 1061 l 440 1042 z "},"∕":{"ha":220,"x_min":-221,"x_max":440,"o":"m 440 1042 l -130 0 l -221 0 l -221 19 l 349 1061 l 440 1061 l 440 1042 z "},"¤":{"ha":828,"x_min":96,"x_max":743,"o":"m 743 745 l 623 625 l 623 357 l 743 237 l 663 157 l 531 288 l 307 288 l 176 157 l 96 237 l 216 357 l 216 625 l 96 745 l 176 825 l 308 694 l 532 694 l 663 825 l 743 745 m 511 389 l 511 594 l 328 594 l 328 389 l 511 389 z "},"‹":{"ha":441,"x_min":45,"x_max":386,"o":"m 386 106 l 216 106 l 45 364 l 45 389 l 216 647 l 386 647 l 386 642 l 210 376 l 386 106 z "},"›":{"ha":441,"x_min":54,"x_max":397,"o":"m 397 364 l 224 106 l 54 106 l 54 111 l 231 376 l 54 647 l 224 647 l 397 389 l 397 364 z "},"":{"ha":627,"x_min":18,"x_max":567,"o":"m 567 0 l 412 0 l 412 553 l 243 553 l 243 0 l 89 0 l 89 553 l 18 553 l 18 685 l 89 685 l 89 977 q 175 1061 89 1061 l 481 1061 q 567 977 567 1061 l 567 783 l 412 783 l 412 926 l 243 926 l 243 685 l 567 685 l 567 0 z "},"ﬁ":{"ha":627,"x_min":18,"x_max":567,"o":"m 567 0 l 412 0 l 412 553 l 243 553 l 243 0 l 89 0 l 89 553 l 18 553 l 18 685 l 89 685 l 89 977 q 175 1061 89 1061 l 481 1061 q 567 977 567 1061 l 567 783 l 412 783 l 412 926 l 243 926 l 243 685 l 567 685 l 567 0 z "},"":{"ha":627,"x_min":18,"x_max":567,"o":"m 567 0 l 412 0 l 412 926 l 243 926 l 243 685 l 342 685 l 342 553 l 243 553 l 243 0 l 89 0 l 89 553 l 18 553 l 18 685 l 89 685 l 89 977 q 175 1061 89 1061 l 567 1061 l 567 0 z "},"ﬂ":{"ha":627,"x_min":18,"x_max":567,"o":"m 567 0 l 412 0 l 412 926 l 243 926 l 243 685 l 342 685 l 342 553 l 243 553 l 243 0 l 89 0 l 89 553 l 18 553 l 18 685 l 89 685 l 89 977 q 175 1061 89 1061 l 567 1061 l 567 0 z "},"‡":{"ha":619,"x_min":47,"x_max":572,"o":"m 572 264 l 383 264 l 383 0 l 236 0 l 236 264 l 47 264 l 47 401 l 236 401 l 236 671 l 47 671 l 47 808 l 236 808 l 236 1061 l 383 1061 l 383 808 l 572 808 l 572 671 l 383 671 l 383 401 l 572 401 l 572 264 z "},"·":{"ha":271,"x_min":52,"x_max":221,"o":"m 221 328 l 52 328 l 52 503 l 221 503 l 221 328 z "},"∙":{"ha":271,"x_min":52,"x_max":221,"o":"m 221 328 l 52 328 l 52 503 l 221 503 l 221 328 z "},"‚":{"ha":272,"x_min":36,"x_max":232,"o":"m 232 186 l 138 -146 l 36 -146 l 71 186 l 232 186 z "},"„":{"ha":498,"x_min":43,"x_max":464,"o":"m 464 186 l 370 -146 l 269 -146 l 304 186 l 464 186 m 237 186 l 144 -146 l 43 -146 l 78 186 l 237 186 z "},"‰":{"ha":1324,"x_min":35,"x_max":1288,"o":"m 382 604 q 300 522 382 522 l 117 522 q 35 604 35 522 l 35 979 q 117 1061 35 1061 l 300 1061 q 382 979 382 1061 l 382 604 m 268 621 l 268 962 l 147 962 l 147 621 l 268 621 m 885 82 q 803 0 885 0 l 620 0 q 538 82 538 0 l 538 458 q 620 540 538 540 l 803 540 q 885 458 885 540 l 885 82 m 771 99 l 771 441 l 650 441 l 650 99 l 771 99 m 791 1042 l 222 0 l 130 0 l 130 19 l 701 1061 l 791 1061 l 791 1042 m 1288 82 q 1206 0 1288 0 l 1023 0 q 941 82 941 0 l 941 458 q 1023 540 941 540 l 1206 540 q 1288 458 1288 540 l 1288 82 m 1174 99 l 1174 441 l 1053 441 l 1053 99 l 1174 99 z "},"Â":{"ha":627,"x_min":25,"x_max":602,"o":"m 602 0 l 444 0 l 412 201 l 214 201 l 182 0 l 25 0 l 25 3 l 231 1063 l 397 1063 l 602 0 m 390 338 l 313 817 l 235 338 l 390 338 m 508 1102 l 406 1102 l 313 1180 l 220 1102 l 120 1102 l 120 1107 l 260 1284 l 368 1284 l 508 1107 l 508 1102 z "},"Ê":{"ha":549,"x_min":64,"x_max":504,"o":"m 504 0 l 64 0 l 64 1061 l 500 1061 l 500 921 l 222 921 l 222 611 l 461 611 l 461 473 l 222 473 l 222 140 l 504 140 l 504 0 m 479 1107 l 377 1107 l 284 1185 l 191 1107 l 91 1107 l 91 1113 l 231 1290 l 338 1290 l 479 1113 l 479 1107 z "},"Á":{"ha":627,"x_min":25,"x_max":602,"o":"m 602 0 l 444 0 l 412 201 l 214 201 l 182 0 l 25 0 l 25 3 l 231 1063 l 397 1063 l 602 0 m 390 338 l 313 817 l 235 338 l 390 338 m 526 1286 l 328 1107 l 214 1107 l 214 1113 l 331 1293 l 526 1293 l 526 1286 z "},"Ë":{"ha":549,"x_min":64,"x_max":504,"o":"m 504 0 l 64 0 l 64 1061 l 500 1061 l 500 921 l 222 921 l 222 611 l 461 611 l 461 473 l 222 473 l 222 140 l 504 140 l 504 0 m 462 1107 l 313 1107 l 313 1253 l 462 1253 l 462 1107 m 255 1107 l 106 1107 l 106 1253 l 255 1253 l 255 1107 z "},"È":{"ha":549,"x_min":64,"x_max":504,"o":"m 504 0 l 64 0 l 64 1061 l 500 1061 l 500 921 l 222 921 l 222 611 l 461 611 l 461 473 l 222 473 l 222 140 l 504 140 l 504 0 m 397 1107 l 283 1107 l 85 1286 l 85 1293 l 279 1293 l 397 1113 l 397 1107 z "},"Í":{"ha":292,"x_min":37,"x_max":349,"o":"m 225 0 l 66 0 l 66 1061 l 225 1061 l 225 0 m 349 1286 l 151 1107 l 37 1107 l 37 1113 l 154 1293 l 349 1293 l 349 1286 z "},"Î":{"ha":292,"x_min":-47,"x_max":340,"o":"m 225 0 l 66 0 l 66 1061 l 225 1061 l 225 0 m 340 1106 l 239 1106 l 146 1184 l 53 1106 l -47 1106 l -47 1112 l 93 1289 l 200 1289 l 340 1112 l 340 1106 z "},"Ï":{"ha":292,"x_min":-32,"x_max":323,"o":"m 225 0 l 66 0 l 66 1061 l 225 1061 l 225 0 m 323 1107 l 175 1107 l 175 1253 l 323 1253 l 323 1107 m 117 1107 l -32 1107 l -32 1253 l 117 1253 l 117 1107 z "},"Ì":{"ha":292,"x_min":-58,"x_max":253,"o":"m 225 0 l 66 0 l 66 1061 l 225 1061 l 225 0 m 253 1107 l 139 1107 l -58 1286 l -58 1293 l 135 1293 l 253 1113 l 253 1107 z "},"Ó":{"ha":663,"x_min":64,"x_max":599,"o":"m 599 97 q 503 0 599 0 l 158 0 q 64 97 64 0 l 64 964 q 158 1061 64 1061 l 503 1061 q 599 964 599 1061 l 599 97 m 440 136 l 440 925 l 222 925 l 222 136 l 440 136 m 541 1286 l 343 1107 l 229 1107 l 229 1113 l 346 1293 l 541 1293 l 541 1286 z "},"Ô":{"ha":663,"x_min":64,"x_max":599,"o":"m 599 97 q 503 0 599 0 l 158 0 q 64 97 64 0 l 64 964 q 158 1061 64 1061 l 503 1061 q 599 964 599 1061 l 599 97 m 440 136 l 440 925 l 222 925 l 222 136 l 440 136 m 525 1107 l 423 1107 l 330 1185 l 237 1107 l 137 1107 l 137 1113 l 277 1290 l 385 1290 l 525 1113 l 525 1107 z "},"Ò":{"ha":663,"x_min":64,"x_max":599,"o":"m 599 97 q 503 0 599 0 l 158 0 q 64 97 64 0 l 64 964 q 158 1061 64 1061 l 503 1061 q 599 964 599 1061 l 599 97 m 440 136 l 440 925 l 222 925 l 222 136 l 440 136 m 433 1107 l 319 1107 l 121 1286 l 121 1293 l 315 1293 l 433 1113 l 433 1107 z "},"Ú":{"ha":659,"x_min":64,"x_max":595,"o":"m 595 97 q 497 0 595 0 l 160 0 q 64 97 64 0 l 64 1061 l 222 1061 l 222 136 l 436 136 l 436 1061 l 595 1061 l 595 97 m 534 1286 l 337 1107 l 223 1107 l 223 1113 l 340 1293 l 534 1293 l 534 1286 z "},"Û":{"ha":659,"x_min":64,"x_max":595,"o":"m 595 97 q 497 0 595 0 l 160 0 q 64 97 64 0 l 64 1061 l 222 1061 l 222 136 l 436 136 l 436 1061 l 595 1061 l 595 97 m 523 1108 l 421 1108 l 328 1186 l 235 1108 l 135 1108 l 135 1114 l 275 1291 l 382 1291 l 523 1114 l 523 1108 z "},"Ù":{"ha":659,"x_min":64,"x_max":595,"o":"m 595 97 q 497 0 595 0 l 160 0 q 64 97 64 0 l 64 1061 l 222 1061 l 222 136 l 436 136 l 436 1061 l 595 1061 l 595 97 m 432 1107 l 318 1107 l 121 1286 l 121 1293 l 314 1293 l 432 1113 l 432 1107 z "},"ı":{"ha":272,"x_min":60,"x_max":212,"o":"m 212 0 l 60 0 l 60 685 l 212 685 l 212 0 z "},"ˆ":{"ha":567,"x_min":90,"x_max":478,"o":"m 478 730 l 376 730 l 283 808 l 191 730 l 90 730 l 90 736 l 231 913 l 338 913 l 478 736 l 478 730 z "},"˜":{"ha":567,"x_min":104,"x_max":463,"o":"m 463 793 q 399 729 463 729 q 302 753 363 729 q 211 790 256 772 l 211 730 l 104 730 l 104 838 q 168 901 104 901 q 264 878 205 901 q 356 840 309 859 l 356 900 l 463 900 l 463 793 z "},"¯":{"ha":567,"x_min":106,"x_max":461,"o":"m 461 743 l 106 743 l 106 850 l 461 850 l 461 743 z "},"ˉ":{"ha":567,"x_min":106,"x_max":461,"o":"m 461 743 l 106 743 l 106 850 l 461 850 l 461 743 z "},"˘":{"ha":567,"x_min":118,"x_max":450,"o":"m 450 812 q 368 730 450 730 l 200 730 q 118 812 118 730 l 118 905 l 231 905 l 231 827 l 338 827 l 338 905 l 450 905 l 450 812 z "},"˙":{"ha":567,"x_min":208,"x_max":359,"o":"m 359 730 l 208 730 l 208 882 l 359 882 l 359 730 z "},"˚":{"ha":567,"x_min":129,"x_max":439,"o":"m 439 802 q 367 730 439 730 l 200 730 q 129 802 129 730 l 129 937 q 200 1008 129 1008 l 367 1008 q 439 937 439 1008 l 439 802 m 334 818 l 334 921 l 234 921 l 234 818 l 334 818 z "},"¸":{"ha":567,"x_min":132,"x_max":432,"o":"m 432 -197 q 367 -262 432 -262 l 197 -262 q 132 -197 132 -262 l 132 -123 l 237 -123 l 237 -180 l 326 -180 l 326 -123 q 258 -94 292 -109 q 228 -33 228 -75 l 228 14 l 330 14 l 330 -28 q 401 -62 366 -45 q 432 -125 432 -83 l 432 -197 z "},"˝":{"ha":567,"x_min":40,"x_max":532,"o":"m 532 907 l 349 730 l 253 730 l 253 736 l 361 911 l 532 911 l 532 907 m 319 907 l 136 730 l 40 730 l 40 736 l 149 911 l 319 911 l 319 907 z "},"˛":{"ha":567,"x_min":129,"x_max":427,"o":"m 427 -262 l 195 -262 q 129 -197 129 -262 l 129 -125 q 160 -56 129 -85 l 233 14 l 371 14 l 371 7 l 248 -113 l 248 -172 l 427 -172 l 427 -262 z "},"ˇ":{"ha":567,"x_min":90,"x_max":478,"o":"m 478 907 l 338 730 l 231 730 l 90 907 l 90 913 l 191 913 l 283 835 l 376 913 l 478 913 l 478 907 z "},"Ł":{"ha":511,"x_min":4,"x_max":481,"o":"m 481 0 l 64 0 l 64 1061 l 222 1061 l 222 142 l 481 142 l 481 0 m 366 557 l 4 338 l 4 465 l 366 685 l 366 557 z "},"ł":{"ha":272,"x_min":16,"x_max":264,"o":"m 212 0 l 60 0 l 60 1061 l 212 1061 l 212 0 m 264 505 l 16 358 l 16 479 l 264 626 l 264 505 z "},"Š":{"ha":635,"x_min":61,"x_max":572,"o":"m 572 97 q 476 0 572 0 l 157 0 q 61 97 61 0 l 61 350 l 220 350 l 220 134 l 414 134 l 414 342 l 96 643 q 61 728 61 676 l 61 964 q 157 1061 61 1061 l 476 1061 q 572 965 572 1061 l 572 728 l 414 728 l 414 928 l 220 928 l 220 736 l 538 436 q 572 350 572 404 l 572 97 m 511 1278 l 371 1101 l 264 1101 l 123 1278 l 123 1284 l 224 1284 l 317 1206 l 410 1284 l 511 1284 l 511 1278 z "},"š":{"ha":539,"x_min":53,"x_max":486,"o":"m 486 85 q 400 0 486 0 l 139 0 q 53 85 53 0 l 53 232 l 201 232 l 201 117 l 338 117 l 338 225 l 100 366 q 53 440 53 393 l 53 600 q 140 685 53 685 l 399 685 q 485 600 485 685 l 485 463 l 338 463 l 338 568 l 201 568 l 201 469 l 439 330 q 486 254 486 303 l 486 85 m 463 907 l 322 730 l 215 730 l 75 907 l 75 913 l 175 913 l 268 835 l 361 913 l 463 913 l 463 907 z "},"Ž":{"ha":542,"x_min":26,"x_max":514,"o":"m 514 0 l 26 0 l 26 85 l 323 918 l 50 918 l 50 1061 l 513 1061 l 513 970 l 216 143 l 514 143 l 514 0 m 477 1274 l 337 1097 l 230 1097 l 90 1274 l 90 1280 l 190 1280 l 283 1202 l 376 1280 l 477 1280 l 477 1274 z "},"ž":{"ha":482,"x_min":31,"x_max":443,"o":"m 443 0 l 31 0 l 31 92 l 258 558 l 49 558 l 49 685 l 443 685 l 443 593 l 214 126 l 443 126 l 443 0 m 443 907 l 302 730 l 195 730 l 55 907 l 55 913 l 155 913 l 248 835 l 341 913 l 443 913 l 443 907 z "},"¦":{"ha":269,"x_min":87,"x_max":182,"o":"m 182 550 l 87 550 l 87 1111 l 182 1111 l 182 550 m 182 -277 l 87 -277 l 87 283 l 182 283 l 182 -277 z "},"Ð":{"ha":652,"x_min":18,"x_max":593,"o":"m 593 200 q 537 53 593 106 q 387 0 481 0 l 64 0 l 64 1061 l 387 1061 q 537 1007 481 1061 q 593 860 593 954 l 593 200 m 433 227 l 433 836 q 340 925 433 925 l 222 925 l 222 136 l 336 136 q 433 227 433 136 m 281 473 l 18 473 l 18 593 l 281 593 l 281 473 z "},"ð":{"ha":545,"x_min":58,"x_max":517,"o":"m 517 847 l 437 811 l 437 86 q 414 24 437 49 q 354 0 391 0 l 142 0 q 58 86 58 0 l 58 574 q 146 660 58 660 l 301 660 l 301 749 l 204 704 l 168 704 l 168 799 l 301 859 l 301 954 l 191 954 l 191 879 l 74 879 l 74 975 q 98 1035 74 1009 q 157 1061 123 1061 l 354 1061 q 427 1013 410 1061 q 437 921 437 985 l 517 957 l 517 847 m 306 115 l 306 547 l 191 547 l 191 115 l 306 115 z "},"Ý":{"ha":615,"x_min":18,"x_max":597,"o":"m 597 1055 l 457 612 q 387 390 431 546 l 387 0 l 228 0 l 228 390 q 197 502 217 443 q 158 612 161 603 l 18 1055 q 18 1061 18 1056 l 182 1061 l 309 600 l 435 1061 l 597 1061 q 597 1055 597 1057 m 531 1286 l 334 1107 l 220 1107 l 220 1113 l 336 1293 l 531 1293 l 531 1286 z "},"ý":{"ha":541,"x_min":21,"x_max":519,"o":"m 519 685 l 348 9 l 282 -250 l 123 -250 l 195 5 l 21 685 l 180 685 l 271 235 l 361 685 l 519 685 m 493 909 l 296 730 l 182 730 l 182 736 l 298 916 l 493 916 l 493 909 z "},"Þ":{"ha":557,"x_min":74,"x_max":510,"o":"m 510 262 q 416 172 510 172 l 210 172 l 210 0 l 74 0 l 74 1061 l 210 1061 l 210 825 l 410 825 q 510 736 510 825 l 510 262 m 374 288 l 374 710 l 210 710 l 210 288 l 374 288 z "},"þ":{"ha":498,"x_min":61,"x_max":440,"o":"m 440 153 q 400 42 440 85 q 292 0 359 0 l 193 0 l 193 -278 l 61 -278 l 61 1061 l 193 1061 l 193 646 q 326 668 326 668 q 440 555 440 668 l 440 153 m 309 192 l 309 543 l 193 543 l 193 107 l 232 107 q 309 192 309 107 z "},"­":{"ha":639,"x_min":81,"x_max":558,"o":"m 558 408 l 81 408 l 81 523 l 558 523 l 558 408 z "},"−":{"ha":639,"x_min":81,"x_max":558,"o":"m 558 408 l 81 408 l 81 523 l 558 523 l 558 408 z "},"×":{"ha":639,"x_min":91,"x_max":547,"o":"m 547 599 l 408 460 l 547 322 l 457 233 l 319 372 l 180 233 l 91 321 l 230 460 l 92 599 l 181 688 l 319 549 l 458 688 l 547 599 z "},"¹":{"ha":269,"x_min":49,"x_max":201,"o":"m 201 522 l 84 522 l 84 809 l 49 809 l 110 1061 l 201 1061 l 201 522 z "},"²":{"ha":425,"x_min":41,"x_max":381,"o":"m 381 522 l 41 522 l 41 581 l 272 868 l 272 963 l 157 963 l 157 854 l 48 854 l 48 972 q 72 1035 48 1008 q 132 1061 96 1061 l 293 1061 q 356 1036 331 1061 q 380 972 380 1011 l 380 906 q 355 813 380 843 l 195 621 l 381 621 l 381 522 z "},"³":{"ha":431,"x_min":44,"x_max":387,"o":"m 387 602 q 367 546 387 570 q 315 522 347 522 l 125 522 q 44 604 44 522 l 44 705 l 152 705 l 152 616 l 279 616 l 279 697 l 161 774 l 161 819 l 269 890 l 269 967 l 155 967 l 155 884 l 47 884 l 47 974 q 134 1061 47 1061 l 300 1061 q 378 986 378 1061 l 378 900 q 347 838 378 863 q 284 796 315 817 q 357 749 349 755 q 387 673 387 720 l 387 602 z "},"½":{"ha":800,"x_min":28,"x_max":786,"o":"m 205 522 l 88 522 l 88 809 l 53 809 l 114 1061 l 205 1061 l 205 522 m 689 1042 l 119 0 l 28 0 l 28 19 l 598 1061 l 689 1061 l 689 1042 m 786 0 l 446 0 l 446 60 l 677 347 l 677 441 l 562 441 l 562 332 l 453 332 l 453 451 q 477 513 453 487 q 536 540 500 540 l 698 540 q 761 515 736 540 q 785 451 785 490 l 785 385 q 760 292 785 321 l 600 100 l 786 100 l 786 0 z "},"¼":{"ha":793,"x_min":20,"x_max":770,"o":"m 203 522 l 86 522 l 86 809 l 51 809 l 112 1061 l 203 1061 l 203 522 m 681 1042 l 111 0 l 20 0 l 20 19 l 590 1061 l 681 1061 l 681 1042 z "},"¾":{"ha":882,"x_min":15,"x_max":871,"o":"m 798 1033 l 228 -9 l 136 -9 l 136 10 l 707 1053 l 798 1053 l 798 1033 m 358 602 q 338 546 358 570 q 286 522 318 522 l 96 522 q 15 604 15 522 l 15 705 l 123 705 l 123 616 l 250 616 l 250 697 l 132 774 l 132 819 l 240 890 l 240 967 l 126 967 l 126 884 l 18 884 l 18 974 q 104 1061 18 1061 l 271 1061 q 349 986 349 1061 l 349 900 q 317 838 349 863 q 255 796 286 817 q 328 749 320 755 q 358 673 358 720 l 358 602 z "},"€":{"ha":647,"x_min":54,"x_max":588,"o":"m 588 387 l 250 387 l 250 133 l 433 133 l 433 312 l 579 312 l 579 97 q 482 0 579 0 l 191 0 q 96 97 96 0 l 96 387 l 54 387 l 54 496 l 96 496 l 96 587 l 54 587 l 54 699 l 96 699 l 96 964 q 191 1061 96 1061 l 482 1061 q 579 964 579 1061 l 579 762 l 433 762 l 433 928 l 250 928 l 250 699 l 588 699 l 588 587 l 250 587 l 250 496 l 588 496 l 588 387 z "}}}
